<mxfile host="Electron" agent="Mozilla/5.0 (X11; Linux x86_64) AppleWebKit/537.36 (KHTML, like Gecko) draw.io/28.1.2 Chrome/138.0.7204.243 Electron/37.4.0 Safari/537.36" version="28.1.2">
  <diagram name="Seite-1" id="L2w308fRFKuACmfVMeDd">
    <mxGraphModel dx="78" dy="140" grid="1" gridSize="10" guides="1" tooltips="1" connect="1" arrows="1" fold="1" page="1" pageScale="1" pageWidth="540" pageHeight="365" math="0" shadow="0">
      <root>
        <mxCell id="0" />
        <mxCell id="1" parent="0" />
        <mxCell id="bO4cj00JHxBitIa0UD0s-28" style="edgeStyle=orthogonalEdgeStyle;shape=connector;rounded=0;orthogonalLoop=1;jettySize=auto;html=1;strokeColor=default;align=center;verticalAlign=middle;fontFamily=Helvetica;fontSize=11;fontColor=default;labelBackgroundColor=default;endArrow=block;endFill=1;entryX=0.5;entryY=0;entryDx=0;entryDy=0;" edge="1" parent="1" source="bO4cj00JHxBitIa0UD0s-1" target="bO4cj00JHxBitIa0UD0s-20">
          <mxGeometry relative="1" as="geometry">
            <Array as="points">
              <mxPoint x="120" y="70" />
              <mxPoint x="120" y="70" />
            </Array>
          </mxGeometry>
        </mxCell>
        <mxCell id="bO4cj00JHxBitIa0UD0s-1" value="Verdacht Spannungspneumothorax" style="rounded=1;whiteSpace=wrap;html=1;arcSize=50;fillColor=#111111;fontColor=#F7F7F7;fontFamily=&quot;Roboto&quot;, &quot;Helvetica Neue&quot;, sans-serif;fontSize=14;fontStyle=1;labelBackgroundColor=none;strokeColor=default;" vertex="1" parent="1">
          <mxGeometry width="540" height="60" as="geometry" />
        </mxCell>
        <mxCell id="bO4cj00JHxBitIa0UD0s-29" style="edgeStyle=orthogonalEdgeStyle;shape=connector;rounded=0;orthogonalLoop=1;jettySize=auto;html=1;entryX=0.5;entryY=0;entryDx=0;entryDy=0;strokeColor=default;align=center;verticalAlign=middle;fontFamily=Helvetica;fontSize=11;fontColor=default;labelBackgroundColor=default;endArrow=block;endFill=1;" edge="1" parent="1" source="bO4cj00JHxBitIa0UD0s-20" target="bO4cj00JHxBitIa0UD0s-22">
          <mxGeometry relative="1" as="geometry" />
        </mxCell>
        <mxCell id="bO4cj00JHxBitIa0UD0s-30" value="JA" style="edgeLabel;html=1;align=center;verticalAlign=middle;resizable=0;points=[];fontFamily=Helvetica;fontSize=11;fontColor=default;labelBackgroundColor=default;" vertex="1" connectable="0" parent="bO4cj00JHxBitIa0UD0s-29">
          <mxGeometry x="-0.0435" y="1" relative="1" as="geometry">
            <mxPoint x="-1" y="-1" as="offset" />
          </mxGeometry>
        </mxCell>
        <mxCell id="bO4cj00JHxBitIa0UD0s-31" style="edgeStyle=orthogonalEdgeStyle;shape=connector;rounded=0;orthogonalLoop=1;jettySize=auto;html=1;strokeColor=default;align=center;verticalAlign=middle;fontFamily=Helvetica;fontSize=11;fontColor=default;labelBackgroundColor=default;endArrow=block;endFill=1;" edge="1" parent="1" source="bO4cj00JHxBitIa0UD0s-20" target="bO4cj00JHxBitIa0UD0s-23">
          <mxGeometry relative="1" as="geometry" />
        </mxCell>
        <mxCell id="bO4cj00JHxBitIa0UD0s-32" value="NEIN" style="edgeLabel;html=1;align=center;verticalAlign=middle;resizable=0;points=[];fontFamily=Helvetica;fontSize=11;fontColor=default;labelBackgroundColor=default;" vertex="1" connectable="0" parent="bO4cj00JHxBitIa0UD0s-31">
          <mxGeometry x="-0.7795" y="-2" relative="1" as="geometry">
            <mxPoint x="-2" y="-2" as="offset" />
          </mxGeometry>
        </mxCell>
        <UserObject label="Spezifische B-Probleme" link="/?action=bprobleme" id="bO4cj00JHxBitIa0UD0s-20">
          <mxCell style="shape=hexagon;perimeter=hexagonPerimeter2;whiteSpace=wrap;html=1;fixedSize=1;fontSize=14;fontFamily=&quot;Roboto&quot;, &quot;Helvetica Neue&quot;, sans-serif;size=20;dashed=1;fontColor=default;labelBackgroundColor=none;" vertex="1" parent="1">
            <mxGeometry y="79.99999999999989" width="240" height="60" as="geometry" />
          </mxCell>
        </UserObject>
        <mxCell id="bO4cj00JHxBitIa0UD0s-34" style="edgeStyle=orthogonalEdgeStyle;shape=connector;rounded=0;orthogonalLoop=1;jettySize=auto;html=1;strokeColor=default;align=center;verticalAlign=middle;fontFamily=Helvetica;fontSize=11;fontColor=default;labelBackgroundColor=default;endArrow=block;endFill=1;" edge="1" parent="1" source="bO4cj00JHxBitIa0UD0s-21" target="bO4cj00JHxBitIa0UD0s-24">
          <mxGeometry relative="1" as="geometry" />
        </mxCell>
        <UserObject label="Spezifische C-Probleme" link="/?action=cprobleme" id="bO4cj00JHxBitIa0UD0s-21">
          <mxCell style="shape=hexagon;perimeter=hexagonPerimeter2;whiteSpace=wrap;html=1;fixedSize=1;fontSize=14;fontFamily=&quot;Roboto&quot;, &quot;Helvetica Neue&quot;, sans-serif;size=20;dashed=1;fontColor=default;labelBackgroundColor=none;" vertex="1" parent="1">
            <mxGeometry y="240" width="240" height="60" as="geometry" />
          </mxCell>
        </UserObject>
        <mxCell id="bO4cj00JHxBitIa0UD0s-33" style="edgeStyle=orthogonalEdgeStyle;shape=connector;rounded=0;orthogonalLoop=1;jettySize=auto;html=1;strokeColor=default;align=center;verticalAlign=middle;fontFamily=Helvetica;fontSize=11;fontColor=default;labelBackgroundColor=default;endArrow=block;endFill=1;" edge="1" parent="1" source="bO4cj00JHxBitIa0UD0s-22" target="bO4cj00JHxBitIa0UD0s-21">
          <mxGeometry relative="1" as="geometry" />
        </mxCell>
        <mxCell id="bO4cj00JHxBitIa0UD0s-22" value="Pneumothorax wahrscheinlich" style="rounded=0;whiteSpace=wrap;html=1;fillColor=#dae8fc;strokeColor=#6c8ebf;fontFamily=&quot;Roboto&quot;, &quot;Helvetica Neue&quot;, sans-serif;fontSize=14;fontColor=default;labelBackgroundColor=none;" vertex="1" parent="1">
          <mxGeometry y="179.9999999999999" width="240" height="40" as="geometry" />
        </mxCell>
        <mxCell id="bO4cj00JHxBitIa0UD0s-36" style="edgeStyle=orthogonalEdgeStyle;shape=connector;rounded=0;orthogonalLoop=1;jettySize=auto;html=1;entryX=0.5;entryY=0;entryDx=0;entryDy=0;strokeColor=default;align=center;verticalAlign=middle;fontFamily=Helvetica;fontSize=11;fontColor=default;labelBackgroundColor=default;endArrow=block;endFill=1;" edge="1" parent="1" source="bO4cj00JHxBitIa0UD0s-23" target="bO4cj00JHxBitIa0UD0s-24">
          <mxGeometry relative="1" as="geometry" />
        </mxCell>
        <mxCell id="bO4cj00JHxBitIa0UD0s-23" value="Pneumothorax&amp;nbsp; unwahrscheinlich" style="rounded=0;whiteSpace=wrap;html=1;fillColor=#dae8fc;strokeColor=#6c8ebf;fontFamily=&quot;Roboto&quot;, &quot;Helvetica Neue&quot;, sans-serif;fontSize=14;fontColor=default;labelBackgroundColor=none;" vertex="1" parent="1">
          <mxGeometry x="300" y="180" width="240" height="40" as="geometry" />
        </mxCell>
        <mxCell id="bO4cj00JHxBitIa0UD0s-24" value="Keine Entlastung" style="rounded=1;whiteSpace=wrap;html=1;arcSize=50;fillColor=#111111;fontColor=#F7F7F7;fontFamily=&quot;Roboto&quot;, &quot;Helvetica Neue&quot;, sans-serif;fontSize=14;fontStyle=1;labelBackgroundColor=none;strokeColor=default;" vertex="1" parent="1">
          <mxGeometry x="300" y="240" width="240" height="60" as="geometry" />
        </mxCell>
        <mxCell id="bO4cj00JHxBitIa0UD0s-39" style="edgeStyle=orthogonalEdgeStyle;shape=connector;rounded=0;orthogonalLoop=1;jettySize=auto;html=1;strokeColor=default;align=center;verticalAlign=middle;fontFamily=Helvetica;fontSize=11;fontColor=default;labelBackgroundColor=default;endArrow=block;endFill=1;" edge="1" parent="1" source="bO4cj00JHxBitIa0UD0s-25" target="bO4cj00JHxBitIa0UD0s-24">
          <mxGeometry relative="1" as="geometry" />
        </mxCell>
        <mxCell id="bO4cj00JHxBitIa0UD0s-25" value="Pneu im Gesamtkontext&lt;div&gt;am wahrscheinlichsten?&lt;/div&gt;" style="shape=hexagon;perimeter=hexagonPerimeter2;whiteSpace=wrap;html=1;fixedSize=1;fontSize=14;fontFamily=&quot;Roboto&quot;, &quot;Helvetica Neue&quot;, sans-serif;size=20;fontColor=default;labelBackgroundColor=none;" vertex="1" parent="1">
          <mxGeometry y="339.9999999999999" width="240" height="60" as="geometry" />
        </mxCell>
        <mxCell id="bO4cj00JHxBitIa0UD0s-46" style="edgeStyle=orthogonalEdgeStyle;shape=connector;rounded=0;orthogonalLoop=1;jettySize=auto;html=1;entryX=0.5;entryY=0;entryDx=0;entryDy=0;strokeColor=default;align=center;verticalAlign=middle;fontFamily=Helvetica;fontSize=11;fontColor=default;labelBackgroundColor=default;endArrow=block;endFill=1;" edge="1" parent="1" source="bO4cj00JHxBitIa0UD0s-26" target="bO4cj00JHxBitIa0UD0s-45">
          <mxGeometry relative="1" as="geometry" />
        </mxCell>
        <mxCell id="bO4cj00JHxBitIa0UD0s-26" value="Entlastungspunktion durchfÃ¼hren" style="rounded=1;whiteSpace=wrap;html=1;arcSize=50;fillColor=#111111;fontColor=#F7F7F7;fontFamily=&quot;Roboto&quot;, &quot;Helvetica Neue&quot;, sans-serif;fontSize=14;fontStyle=1;labelBackgroundColor=none;strokeColor=default;" vertex="1" parent="1">
          <mxGeometry y="500" width="540" height="60" as="geometry" />
        </mxCell>
        <mxCell id="bO4cj00JHxBitIa0UD0s-44" style="edgeStyle=orthogonalEdgeStyle;shape=connector;rounded=0;orthogonalLoop=1;jettySize=auto;html=1;strokeColor=default;align=center;verticalAlign=middle;fontFamily=Helvetica;fontSize=11;fontColor=default;labelBackgroundColor=default;endArrow=block;endFill=1;" edge="1" parent="1" source="bO4cj00JHxBitIa0UD0s-27" target="bO4cj00JHxBitIa0UD0s-26">
          <mxGeometry relative="1" as="geometry" />
        </mxCell>
        <mxCell id="bO4cj00JHxBitIa0UD0s-27" value="Spannungspneumothorax wahrscheinlich" style="rounded=0;whiteSpace=wrap;html=1;fillColor=#dae8fc;strokeColor=#6c8ebf;fontFamily=&quot;Roboto&quot;, &quot;Helvetica Neue&quot;, sans-serif;fontSize=14;fontColor=default;labelBackgroundColor=none;" vertex="1" parent="1">
          <mxGeometry y="440" width="540" height="40" as="geometry" />
        </mxCell>
        <mxCell id="bO4cj00JHxBitIa0UD0s-35" value="NEIN" style="edgeLabel;html=1;align=center;verticalAlign=middle;resizable=0;points=[];fontFamily=Helvetica;fontSize=11;fontColor=default;labelBackgroundColor=default;" vertex="1" connectable="0" parent="1">
          <mxGeometry x="266" y="270" as="geometry" />
        </mxCell>
        <mxCell id="bO4cj00JHxBitIa0UD0s-37" style="edgeStyle=orthogonalEdgeStyle;shape=connector;rounded=0;orthogonalLoop=1;jettySize=auto;html=1;entryX=0.5;entryY=0;entryDx=0;entryDy=0;strokeColor=default;align=center;verticalAlign=middle;fontFamily=Helvetica;fontSize=11;fontColor=default;labelBackgroundColor=default;endArrow=block;endFill=1;" edge="1" parent="1">
          <mxGeometry relative="1" as="geometry">
            <mxPoint x="119.57" y="300" as="sourcePoint" />
            <mxPoint x="119.57" y="340" as="targetPoint" />
          </mxGeometry>
        </mxCell>
        <mxCell id="bO4cj00JHxBitIa0UD0s-38" value="JA" style="edgeLabel;html=1;align=center;verticalAlign=middle;resizable=0;points=[];fontFamily=Helvetica;fontSize=11;fontColor=default;labelBackgroundColor=default;" vertex="1" connectable="0" parent="bO4cj00JHxBitIa0UD0s-37">
          <mxGeometry x="-0.0435" y="1" relative="1" as="geometry">
            <mxPoint x="-1" y="-1" as="offset" />
          </mxGeometry>
        </mxCell>
        <mxCell id="bO4cj00JHxBitIa0UD0s-40" value="NEIN" style="edgeLabel;html=1;align=center;verticalAlign=middle;resizable=0;points=[];fontFamily=Helvetica;fontSize=11;fontColor=default;labelBackgroundColor=default;" vertex="1" connectable="0" parent="1">
          <mxGeometry x="266" y="370" as="geometry" />
        </mxCell>
        <mxCell id="bO4cj00JHxBitIa0UD0s-42" style="edgeStyle=orthogonalEdgeStyle;shape=connector;rounded=0;orthogonalLoop=1;jettySize=auto;html=1;entryX=0.5;entryY=0;entryDx=0;entryDy=0;strokeColor=default;align=center;verticalAlign=middle;fontFamily=Helvetica;fontSize=11;fontColor=default;labelBackgroundColor=default;endArrow=block;endFill=1;" edge="1" parent="1">
          <mxGeometry relative="1" as="geometry">
            <mxPoint x="119.57" y="400" as="sourcePoint" />
            <mxPoint x="119.57" y="440" as="targetPoint" />
          </mxGeometry>
        </mxCell>
        <mxCell id="bO4cj00JHxBitIa0UD0s-43" value="JA" style="edgeLabel;html=1;align=center;verticalAlign=middle;resizable=0;points=[];fontFamily=Helvetica;fontSize=11;fontColor=default;labelBackgroundColor=default;" vertex="1" connectable="0" parent="bO4cj00JHxBitIa0UD0s-42">
          <mxGeometry x="-0.0435" y="1" relative="1" as="geometry">
            <mxPoint x="-1" y="-1" as="offset" />
          </mxGeometry>
        </mxCell>
        <mxCell id="bO4cj00JHxBitIa0UD0s-45" value="Entweichen von Luft&lt;br&gt;HÃ¤modynamische Besserung?&lt;br&gt;Verbesserung Dyspnoe/Beatmung?" style="shape=hexagon;perimeter=hexagonPerimeter2;whiteSpace=wrap;html=1;fixedSize=1;fontSize=14;fontFamily=&quot;Roboto&quot;, &quot;Helvetica Neue&quot;, sans-serif;size=20;fontColor=default;labelBackgroundColor=none;" vertex="1" parent="1">
          <mxGeometry x="120" y="580" width="300" height="60" as="geometry" />
        </mxCell>
        <mxCell id="bO4cj00JHxBitIa0UD0s-53" style="edgeStyle=orthogonalEdgeStyle;shape=connector;rounded=0;orthogonalLoop=1;jettySize=auto;html=1;entryX=1;entryY=0.5;entryDx=0;entryDy=0;strokeColor=default;align=center;verticalAlign=middle;fontFamily=Helvetica;fontSize=11;fontColor=default;labelBackgroundColor=default;endArrow=block;endFill=1;" edge="1" parent="1" source="bO4cj00JHxBitIa0UD0s-47" target="bO4cj00JHxBitIa0UD0s-45">
          <mxGeometry relative="1" as="geometry">
            <Array as="points">
              <mxPoint x="440" y="700" />
              <mxPoint x="440" y="610" />
            </Array>
          </mxGeometry>
        </mxCell>
        <mxCell id="bO4cj00JHxBitIa0UD0s-47" value="Kontinuierliche Beurteilung" style="rounded=0;whiteSpace=wrap;html=1;fillColor=#dae8fc;strokeColor=#6c8ebf;fontFamily=&quot;Roboto&quot;, &quot;Helvetica Neue&quot;, sans-serif;fontSize=14;fontColor=default;labelBackgroundColor=none;" vertex="1" parent="1">
          <mxGeometry x="140" y="680" width="260" height="40" as="geometry" />
        </mxCell>
        <mxCell id="bO4cj00JHxBitIa0UD0s-49" style="edgeStyle=orthogonalEdgeStyle;shape=connector;rounded=0;orthogonalLoop=1;jettySize=auto;html=1;entryX=0.5;entryY=0;entryDx=0;entryDy=0;strokeColor=default;align=center;verticalAlign=middle;fontFamily=Helvetica;fontSize=11;fontColor=default;labelBackgroundColor=default;endArrow=block;endFill=1;" edge="1" parent="1">
          <mxGeometry relative="1" as="geometry">
            <mxPoint x="270" y="640" as="sourcePoint" />
            <mxPoint x="270" y="680" as="targetPoint" />
          </mxGeometry>
        </mxCell>
        <mxCell id="bO4cj00JHxBitIa0UD0s-50" value="JA" style="edgeLabel;html=1;align=center;verticalAlign=middle;resizable=0;points=[];fontFamily=Helvetica;fontSize=11;fontColor=default;labelBackgroundColor=default;" vertex="1" connectable="0" parent="bO4cj00JHxBitIa0UD0s-49">
          <mxGeometry x="-0.0435" y="1" relative="1" as="geometry">
            <mxPoint x="-2" y="-1" as="offset" />
          </mxGeometry>
        </mxCell>
        <mxCell id="bO4cj00JHxBitIa0UD0s-54" style="edgeStyle=orthogonalEdgeStyle;shape=connector;rounded=0;orthogonalLoop=1;jettySize=auto;html=1;entryX=0.143;entryY=1.033;entryDx=0;entryDy=0;entryPerimeter=0;strokeColor=default;align=center;verticalAlign=middle;fontFamily=Helvetica;fontSize=11;fontColor=default;labelBackgroundColor=default;endArrow=block;endFill=1;" edge="1" parent="1" source="bO4cj00JHxBitIa0UD0s-45" target="bO4cj00JHxBitIa0UD0s-26">
          <mxGeometry relative="1" as="geometry">
            <Array as="points">
              <mxPoint x="77" y="610" />
            </Array>
          </mxGeometry>
        </mxCell>
        <mxCell id="bO4cj00JHxBitIa0UD0s-55" value="NEIN" style="edgeLabel;html=1;align=center;verticalAlign=middle;resizable=0;points=[];fontFamily=Helvetica;fontSize=11;fontColor=default;labelBackgroundColor=default;" vertex="1" connectable="0" parent="bO4cj00JHxBitIa0UD0s-54">
          <mxGeometry x="-0.5684" relative="1" as="geometry">
            <mxPoint as="offset" />
          </mxGeometry>
        </mxCell>
      </root>
    </mxGraphModel>
  </diagram>
</mxfile>
